<?xml version="1.0" encoding="utf-8"?>
<svg xmlns="http://www.w3.org/2000/svg">
  <g>
    <g transform="translate(50,70)">
      <g transform="translate(11,11)">
        <path id="Display-Brightness" height="26" width="26" transform="rotate(0,13,13) translate(0,0) scale(0.40625,0.40625)  " fill="#FFF8F8" d="M29.518001,55.250001C30.3331,55.3359 31.161399,55.3854 31.9987,55.3854 32.837302,55.3854 33.665502,55.3359 34.481999,55.250001L34.481999,64.000001 29.518001,64.000001z M50.182244,46.674001L56.383,52.874982 52.873757,56.383 46.673001,50.182115C47.962155,49.137753,49.139302,47.963178,50.182244,46.674001z M13.817849,46.674001C14.860794,47.963178,16.036545,49.137753,17.327001,50.182115L11.126232,56.383 7.6170006,52.874982z M55.249002,29.518001L64.000001,29.518001 64.000001,34.481999 55.249002,34.481999C55.336198,33.666734 55.384496,32.838567 55.384496,31.999999 55.384496,31.161332 55.336198,30.333165 55.249002,29.518001z M0,29.518001L8.7509995,29.518001C8.6636639,30.333165 8.6155157,31.161332 8.6155157,31.999999 8.6155157,32.838567 8.6636639,33.666734 8.7509995,34.481999L0,34.481999z M31.998651,16.620001L31.998651,47.380399C40.47895,47.380399 47.378488,40.481999 47.378488,32.000199 47.378488,23.521 40.47895,16.620001 31.998651,16.620001z M31.998651,12.87C42.564803,12.87 51.131001,21.435101 51.131001,32.000199 51.131001,42.565301 42.564803,51.133 31.998651,51.133 21.435199,51.133 12.869001,42.565301 12.869001,32.000199 12.869001,21.435101 21.435199,12.87 31.998651,12.87z M52.873757,7.6169996L56.383,11.127442 50.182244,17.328C49.139302,16.038988,47.962155,14.861777,46.673001,13.817567z M11.126232,7.6169996L17.327001,13.817567C16.036545,14.861777,14.860794,16.036288,13.817849,17.328L7.6170006,11.127442z M29.518001,0L34.481999,0 34.481999,8.7530003C33.665502,8.6644959 32.837302,8.6176233 31.9987,8.6176224 31.161399,8.6176233 30.3331,8.6644959 29.518001,8.7530003z" />
      </g>
    </g>
    <g transform="translate(118,70)">
      <g transform="translate(11,11)">
        <path id="Full-Screen-Expand" height="26" width="26" transform="rotate(0,13,13) translate(0,0) scale(0.46127914886469,0.46127914886469)  " fill="#FFF8F8" d="M17.009024,34.375001L21.992001,39.360691 11.299349,50.047187 17.61442,56.365 0,56.365 0,38.75008 6.3150315,45.065395z M39.355614,34.371001L50.047157,45.065394 56.365002,38.750081 56.365002,56.365 38.750103,56.365 45.065346,50.047185 34.371002,39.360691z M38.750103,0L56.365002,0 56.365002,17.614279 50.049858,11.295294 39.355614,21.992999 34.371002,17.00889 45.065346,6.3150749z M0,0L17.61482,0 11.299606,6.3151321 21.990002,17.009045 17.009411,21.991999 6.3151751,11.295397 0,17.614439z" />
      </g>
    </g>
    <g transform="translate(186,70)">
      <g transform="translate(11,11)">
        <path id="Full-Screen-Expand(1)" height="26" width="26" transform="rotate(45,13,13) translate(0,0) scale(0.46127914886469,0.46127914886469)  " fill="#FFF8F8" d="M17.009024,34.375001L21.992001,39.360691 11.299349,50.047187 17.61442,56.365 0,56.365 0,38.75008 6.3150315,45.065395z M39.355614,34.371001L50.047157,45.065394 56.365002,38.750081 56.365002,56.365 38.750103,56.365 45.065346,50.047185 34.371002,39.360691z M38.750103,0L56.365002,0 56.365002,17.614279 50.049858,11.295294 39.355614,21.992999 34.371002,17.00889 45.065346,6.3150749z M0,0L17.61482,0 11.299606,6.3151321 21.990002,17.009045 17.009411,21.991999 6.3151751,11.295397 0,17.614439z" />
      </g>
    </g>
    <g transform="translate(254,70)">
      <g transform="translate(11.0000002869931,11)">
        <path id="Zoom" height="26" width="26" transform="rotate(0,12.9999997130069,13) translate(0,0) scale(0.0303112258836174,0.0303112258836174)  " fill="#FFF8F8" d="M327.443,120.724C286.258,121.412 244.971,133.658 210.122,158.14 125.16,217.825 110.532,327.552 177.262,403.323 244.189,479.272 367.226,492.317 452.39,432.628 537.353,372.939 551.98,263.216 485.053,187.446 447.517,144.724 392.102,121.906 335.677,120.74 332.934,120.684 330.189,120.678 327.443,120.724z M331.818,0.000671C334.139,0.005066 336.459,0.031158 338.778,0.078827 434.195,2.04037 527.883,40.5722 591.456,112.748 684.836,218.54 684.033,363.293 600.274,467.475L857.768,759.301 717.499,857.768 460.804,566.836C326.547,617.947 165.638,585.243 70.856,478.02 -42.1614,349.711 -17.3139,164.034 126.363,63.2468 187.341,20.5283 259.874,-0.136536 331.818,0.000671z" />
      </g>
    </g>
    <g transform="translate(322,70)">
      <g transform="translate(11,11.0014234197529)">
        <path id="Magnifying-Glass" height="26" width="26" transform="rotate(0,13,12.9985765802471) translate(0,0) scale(0.406249951527454,0.406249951527454)  " fill="#FFF8F8" d="M18.14224,37.864002C19.170923,39.418609 20.367599,40.893317 21.734777,42.261824 23.088753,43.616731 24.560127,44.813136 26.119999,45.850441L8.4262904,63.539928C7.3546995,64.620028 4.6932863,63.702627 2.4941045,61.493013 0.29231956,59.294506 -0.62693028,56.637491 0.45240109,55.569187z M41.784614,7.6141262C38.044834,7.6141262 34.305878,9.0367947 31.461471,11.882132 25.76486,17.570866 25.76486,26.835057 31.461471,32.537491 37.150284,38.227624 46.417297,38.227624 52.112709,32.537491 57.809219,26.835057 57.81702,17.570866 52.112709,11.882132 49.265003,9.0367947 45.524399,7.6141262 41.784614,7.6141262z M41.790493,0C47.480453,0 53.169262,2.1658096 57.49802,6.4974232 66.167335,15.161493 66.167335,29.257628 57.49802,37.921528 48.840504,46.584827 34.742779,46.584827 26.076061,37.921528 17.414646,29.257628 17.414646,15.161493 26.076061,6.4974232 30.40942,2.1658096 36.100532,0 41.790493,0z" />
      </g>
    </g>
    <g transform="translate(390,70)">
      <g transform="translate(11,11)">
        <path id="Measurements - 04" height="26" width="26" transform="rotate(0,13,13) translate(0,0) scale(0.0323383084577114,0.0323383084577114)  " fill="#FFF8F8" d="M427.232,177.36L427.232,380.913 473.588,380.913 473.588,260.237 519.38,260.237 519.38,380.913 569.542,380.913 569.542,260.237 615.371,260.237 615.371,380.913 665.534,380.913 665.534,260.237 711.362,260.237 711.362,380.913 759.717,380.913 759.717,177.36z M44.3589,177.36L44.3589,380.913 131.041,380.913 131.041,177.36z M177.36,44.3589L177.36,131.041 177.36,177.36 177.36,380.913 177.36,427.232 177.36,759.641 380.913,759.641 380.913,656.641 270.789,656.641 270.789,610.849 380.913,610.849 380.913,560.723 270.789,560.723 270.789,514.896 380.913,514.896 380.913,464.731 270.789,464.731 270.789,418.903 380.913,418.903 380.913,380.913 380.913,368.74 270.789,368.74 270.789,322.95 380.913,322.95 380.913,272.824 270.789,272.824 270.789,226.959 380.913,226.959 380.913,177.36 380.913,176.833 270.789,176.833 270.789,131.041 380.913,131.041 380.913,44.3589z M131.041,0L427.232,0 427.232,131.041 804,131.041 804,427.232 427.232,427.232 427.232,804 131.041,804 131.041,427.232 0,427.232 0,131.041 131.041,131.041z" />
      </g>
    </g>
    <g transform="translate(458,70)">
      <g transform="translate(12.4741015264153,11)">
        <path id="Shape -03" height="26" width="26" transform="rotate(0,11.5258984735847,13) translate(0,0) scale(1.21876903280536,1.21876903280536)  " fill="#FFF8F8" d="M10.913,0L18.914,21.333 10.913,21.333z M8.0010002,0L8.0010002,21.333 0,21.333z" />
      </g>
    </g>
    <g transform="translate(526,70)">
      <g transform="translate(11,12.4741003641066)">
        <path id="Shape-02" height="26" width="26" transform="rotate(0,13,11.5258996358934) translate(0,0) scale(1.21876903280536,1.21876903280536)  " fill="#FFF8F8" d="M0,10.913L21.333,10.913 21.333,18.914001z M21.333,0L21.333,8.0010002 0,8.0010002z" />
      </g>
    </g>
    <g transform="translate(594,70)">
      <g transform="translate(12.9931882181105,11)">
        <path id="Ruler" height="26" width="26" transform="rotate(0,11.0068117818895,13) translate(0,0) scale(0.470980375978905,0.470980375978905)  " fill="#FFF8F8" d="M36.395616,27.710001L46.734,41.987142 22.947999,45.659002 27.540402,39.528869 37.257598,38.028886 33.033687,32.196849z M41.167006,7.9399996L46.740001,12.117119 44.687865,14.855405 40.588799,11.640521 40.19299,12.148318 44.302459,15.369702 41.186507,19.528482 38.776269,17.63779 38.380462,18.145688 40.801101,20.044079 37.769851,24.088357 33.161675,20.637775 32.776172,21.149573 37.384347,24.602655 34.267093,28.762733 31.807454,26.916442 31.422048,27.430742 33.882989,29.274532 30.767035,33.433412 26.158862,29.982828 25.770856,30.497125 30.38033,33.949008 27.265779,38.10779 24.79954,36.260194 24.414134,36.774494 26.880273,38.622083 23.764322,42.779665 19.156247,39.325181 18.770741,39.840877 23.378917,43.29276 20.262966,47.451437 17.791626,45.602548 17.406219,46.116945 19.877559,47.967138 16.761608,52.124715 12.153533,48.671636 11.768027,49.187231 16.377501,52.639013 14.454271,55.204 8.8799998,51.025724z M16.330647,0L30.802001,19.985437 27.440011,24.472501 18.122342,11.606605 7.8450352,42.567255 14.669253,41.513963 10.075468,47.64541 0,49.199998z" />
      </g>
    </g>
    <g transform="translate(662,70)">
      <g transform="translate(11,11.0000023740293)">
        <path id="Target" height="26" width="26" transform="rotate(0,13,12.9999976259707) translate(0,0) scale(0.414891689174798,0.414891689174798)  " fill="#FFF8F8" d="M31.647835,21.819011C37.056774,21.819011 41.4459,26.202763 41.4459,31.610512 41.4459,37.017222 37.056774,41.402012 31.647835,41.402012 26.239018,41.402012 21.859899,37.017222 21.859899,31.610512 21.859899,26.202763 26.239018,21.819011 31.647835,21.819011z M31.648463,11.80599C20.728994,11.80599 11.839426,20.691982 11.839426,31.610973 11.839426,42.532965 20.728994,51.417955 31.648463,51.417955 42.567934,51.417955 51.457502,42.532965 51.457502,31.610973 51.457502,20.691982 42.567934,11.80599 31.648463,11.80599z M29.86855,0L32.798408,0 32.798408,10.187991C43.367895,10.74999,51.90748,18.918984,53.007425,29.330975L53.007425,29.305974 62.666958,29.305974 62.666958,32.240973 53.127401,32.240973 53.130848,32.147326C53.135221,31.969078 53.137421,31.790286 53.137421,31.610973 53.137421,31.822973 53.12742,32.030972 53.11742,32.240973L53.127401,32.240973 53.111229,32.680408C52.572058,43.662609,43.773811,52.452738,32.798408,53.034954L32.798408,62.666946 29.86855,62.666946 29.86855,53.119955C30.07854,53.125956 30.288529,53.129955 30.49852,53.129955 30.798505,53.129955 31.098491,53.093954 31.398476,53.080956 20.016216,52.949205 10.764194,43.978889 10.197059,32.708606L10.17942,32.240973 10.175706,32.104497 10.169507,31.610973C10.169507,31.716973,10.169507,31.821973,10.170757,31.926723L10.175706,32.104497 10.176422,32.161503 10.17942,32.240973 0,32.240973 0,29.305974 10.289501,29.305974C11.379448,18.857984 20.049027,10.63199 30.728508,10.176991 30.648512,10.174992 30.578516,10.163991 30.49852,10.163991 30.288529,10.163991 30.07854,10.166991 29.86855,10.174992z" />
      </g>
    </g>
    <g transform="translate(730,70)">
      <g transform="translate(11,11)">
        <path id="Tools - 01" height="26" width="26" transform="rotate(0,13,13) translate(0,0) scale(0.0314389359129383,0.0314389359129383)  " fill="#FFF8F8" d="M329.746,0L505.977,32.4224 304.935,239.492 432.98,371.336 473.18,329.97 827,694.397 698.335,827 344.515,462.493 384.677,421.126 256.632,289.203 103.893,446.601 0,339.633 152.778,182.274 127.735,156.48 175.999,106.729 201.081,132.523z" />
      </g>
    </g>
    <g transform="translate(798,70)">
      <g transform="translate(11,12.0856073798654)">
        <path id="Hospital" height="26" width="26" transform="rotate(0,13,11.9143926201346) translate(0,0) scale(0.562782774699256,0.562782774699256)  " fill="#FFF8F8" d="M15.858006,17.417L19.679796,17.417 19.679796,21.87509 24.133001,21.87509 24.133001,25.69521 19.679796,25.69521 19.679796,30.156 15.858006,30.156 15.858006,25.69521 11.396999,25.69521 11.396999,21.87509 15.858006,21.87509z M23.097599,7.9452917L9.4413691,18.374958 9.4413691,39.015507 14.118439,39.015507 17.113226,39.015507 29.083174,39.015507 32.62746,39.015507 36.74984,39.015507 36.74984,18.374958z M23.097599,0L46.198997,17.63016 42.566212,22.390549 40.079224,20.489552 40.079224,42.341 6.1158133,42.341 6.1158133,20.489552 3.6301744,22.390549 0,17.63016 8.3801537,11.234374 14.364537,6.664045z" />
      </g>
    </g>
    <g transform="translate(866,70)">
      <g transform="translate(11.0000011623087,11)">
        <path id="Cirlce Play" height="26" width="26" transform="rotate(0,12.9999988376913,13) translate(0,0) scale(1.21876903280536,1.21876903280536)  " fill="#FFF8F8" d="M8.3570007,6.1859996L14.698,10.66649 8.3570007,15.146999z M10.6665,2.0871906C5.9268889,2.0871906 2.0858412,5.9283266 2.0858412,10.66655 2.0858412,15.404783 5.9268889,19.24583 10.6665,19.24583 15.403311,19.24583 19.244439,15.404783 19.244439,10.66655 19.244439,5.9283266 15.403311,2.0871906 10.6665,2.0871906z M10.6665,0C16.54649,0 21.332999,4.7850927 21.332999,10.66655 21.332999,16.547968 16.54649,21.333 10.6665,21.333 4.7837806,21.333 0,16.547968 0,10.66655 0,4.7850927 4.7837806,0 10.6665,0z" />
      </g>
    </g>
    <g transform="translate(934,70)">
      <g transform="translate(11,11.2291282434225)">
        <path id="Window - 01" height="26" width="26" transform="rotate(0,13,12.7708717565775) translate(0,0) scale(1.21876903280536,1.21876903280536)  " fill="#FFF8F8" d="M12.362,11.987L21.333,11.987 21.333,20.957001 12.362,20.957001z M0,11.987L8.9700003,11.987 8.9700003,20.957001 0,20.957001z M12.362,0L21.333,0 21.333,8.9700005 12.362,8.9700005z M0,0L8.9700003,0 8.9700003,8.9700005 0,8.9700005z" />
      </g>
    </g>
    <g transform="translate(1002,70)">
      <g transform="translate(11,11)">
        <path id="Circle Info - 01" height="26" width="26" transform="rotate(0,13,13) translate(0,0) scale(0.0338541666666667,0.0338541666666667)  " fill="#FFF8F8" d="M400.949,269.212C411.685,269.212 420.402,271.884 426.803,277.181 433.834,283.041 437.56,291.149 437.56,300.711 437.56,304.742 437.56,313.226 413.298,394.268 383.11,495.747 375.798,532.871 375.237,545.622 378.304,542.62 391.668,533.48 422.209,504.84L430.9,496.639 463.039,527.997 453.545,536.903C419.134,569.291 394.408,589.586 378.048,598.96 360.612,608.899 346.268,613.774 334.194,613.774 322.29,613.774 312.089,609.648 304.754,601.772 297.558,594.039 293.9,583.683 293.9,570.932 293.9,538.966 312.046,464.626 349.334,343.88 344.155,343.599 334.991,350.771 307.803,377.255L300.021,384.894 264.676,357.52 273.744,347.49C298.917,319.835 322.357,299.821 343.521,287.868 365.718,275.307 384.54,269.212 400.949,269.212z M400.252,132.95C428.055,132.95 450.583,155.499 450.583,183.203 450.583,211.047 428.055,233.5 400.252,233.5 372.423,233.5 349.961,211.047 349.961,183.203 349.961,155.499 372.423,132.95 400.252,132.95z M384.002,75.14C213.374,75.14 75.0918,213.423 75.0918,384.002 75.0918,554.581 213.374,692.861 384.002,692.861 554.53,692.861 692.814,554.581 692.814,384.002 692.814,213.423 554.53,75.14 384.002,75.14z M384.002,0C595.689,0 768,172.266 768,384.002 768,595.736 595.689,768 384.002,768 172.22,768 0,595.736 0,384.002 0,172.266 172.22,0 384.002,0z" />
      </g>
    </g>
    <g transform="translate(1070,70)">
      <g transform="translate(11,11.6662497526935)">
        <path id="Cut" height="26" width="26" transform="rotate(0,13,12.3337502473065) translate(0,0) scale(0.40624999997863,0.40624999997863)  " fill="#FFF8F8" d="M26.93272,40.905998L26.451015,41.976318 24.699699,46.260094 24.439299,46.437298 21.630575,52.664005C21.368874,53.533619 21.357073,54.478939 21.699675,55.054646 22.090179,55.712357 23.079786,56.020966 24.280296,55.861763 26.486116,55.570259 29.517443,53.617123 30.788252,49.075542 31.509558,46.499798 31.469257,44.511963 30.671051,43.16914 29.822144,41.747314 28.163231,41.153507 26.93272,40.905998z M11.809452,21.572449C8.7251377,21.600742 6.5700688,22.9643 5.5466814,24.369844 4.210753,26.208536 4.8657231,27.786457 7.3722467,28.260103L14.150891,28.755148 14.254991,28.702854 15.780988,28.872335 19.955578,29.176001C20.325277,27.981735 20.596077,26.236832 19.749779,24.812695 18.95038,23.469145 17.223885,22.487257 14.61439,21.891125 13.609521,21.661287 12.673059,21.564526 11.809452,21.572449z M43.601677,0L31.104164,30.593931 64,34.285347 55.42709,39.385468 38.033871,39.015766 31.391865,35.604153 29.14706,35.375153 28.790461,36.250156C30.869762,36.812656 33.401066,38.005566 34.957165,40.618874 36.48177,43.182285 36.69537,46.476799 35.591068,50.419617 33.666668,57.299545 28.55196,60.151161 24.841057,60.64336 21.628952,61.070564 18.648352,59.679455 17.22135,57.279045 16.519447,56.099339 16.921848,51.107117 16.990749,50.893318L18.683651,47.164303 23.837255,34.88295 11.005141,33.620747 6.8593082,33.422047C6.5311871,33.361946 1.6901219,31.174433 1.002491,30.01823 -0.4245705,27.617319 -0.39203876,24.054804 1.5142117,21.435192 3.7186239,18.408779 8.7628794,15.437566 15.726547,17.028872 19.718651,17.937576 22.511755,19.700785 24.036356,22.263296 25.624956,24.933706 25.423157,27.788721 24.901056,29.896128L25.817659,30.00013 26.742159,27.78722 26.984358,20.442987 35.029865,5.097682z" />
      </g>
    </g>
    <g transform="translate(1138,70)">
      <g transform="translate(11,12.3809819554853)">
        <path id="Key" height="26" width="26" transform="rotate(0,13,11.6190180445147) translate(0,0) scale(0.443973905703136,0.443973905703136)  " fill="#FFF8F8" d="M16.547848,26.872497C14.451092,26.916562 12.365034,27.710413 10.729302,29.266098 7.2240894,32.589393 7.0834706,38.118687 10.403706,41.615683 13.72137,45.118677 19.252512,45.263676 22.752474,41.941881 26.247238,38.621584 26.401036,33.097193 23.078072,29.594298 21.314234,27.73567 18.92417,26.822555 16.547848,26.872497z M47.555126,0.0002117157C47.726013,0.0044841766,47.895291,0.073574066,48.021641,0.20638657L52.778168,5.1985388C53.03077,5.4641666,53.020371,5.888484,52.754769,6.1409225L52.232945,6.6370945 58.379608,13.115402C58.632122,13.382402,58.621121,13.806803,58.354809,14.058203L56.356011,15.956708C56.089798,16.207609,55.665879,16.197409,55.413365,15.930308L49.269745,9.4546347 48.00716,10.655153 52.407509,15.294587C52.660187,15.560289,52.649086,15.984593,52.382813,16.237495L50.384396,18.133013C50.118122,18.386015,49.694359,18.375215,49.441685,18.109612L45.04353,13.473104 30.99349,26.832494 31.170538,27.124847C35.031944,33.685067 34.017586,42.279621 28.253817,47.748075 21.549486,54.107365 10.954499,53.828564 4.5965569,47.125475 -1.7705653,40.417484 -1.4855343,29.826198 5.21898,23.462906 10.672487,18.294763 18.680851,17.507213 24.908787,20.994482L25.088602,21.09812 47.078934,0.18294907C47.211735,0.056484222,47.384236,-0.0040607452,47.555126,0.0002117157z" />
      </g>
    </g>
    <g transform="translate(1206,70)">
      <g transform="translate(11,14.4741807516898)">
        <path id="Mail" height="26" width="26" transform="rotate(0,13,9.52581924831016) translate(0,0) scale(0.487503045220324,0.487503045220324)  " fill="#FFF8F8" d="M0,4.0800388L0.030031017,4.0800388 12.610706,16.409995 26.621516,30.149985 40.642334,16.409995 53.223011,4.0800388 53.333001,4.0800388 53.333001,39.080039 0,39.080039z M3.1698808,0L26.660885,0 50.161892,0 38.411389,11.791528 26.660885,23.573054 14.920383,11.791528z" />
      </g>
    </g>
    <g transform="translate(1274,70)">
      <g transform="translate(11.0000010441322,11)">
        <path id="QR-Code" height="26" width="26" transform="rotate(0,12.9999989558678,13) translate(0,0) scale(0.547425969221714,0.547425969221714)  " fill="#FFF8F8" d="M20.896996,45.594005L22.797995,45.594005 22.797995,47.495006 20.896996,47.495006z M45.594004,39.896003L47.495003,39.896003 47.495003,47.495006 45.594004,47.495006 43.693999,47.495006 43.693999,45.594005 45.594004,45.594005z M15.198,37.995997L17.098007,37.995997 17.098007,41.795016 18.997982,41.795016 18.997982,43.693006 20.896996,43.693006 20.896996,45.594005 18.997982,45.594005 18.997982,47.495006 17.098007,47.495006 17.098007,43.693006 15.198,43.693006z M3.7989883,37.995997L5.6989937,37.995997 7.598999,37.995997 9.4990044,37.995997 9.4990044,43.693006 7.598999,43.693006 5.6989937,43.693006 3.7989883,43.693006z M1.9000053,36.094005L1.9000053,45.594005 3.7989883,45.594005 3.8000107,45.594005 5.6989937,45.594005 7.598999,45.594005 9.4990044,45.594005 11.400005,45.594005 11.400005,36.094005 9.4990044,36.094005 7.598999,36.094005 5.6989937,36.094005 3.8000107,36.094005 3.7989883,36.094005z M34.195984,34.195024L36.094997,34.195024 36.094997,36.094005 34.195984,36.094005z M0,34.195024L1.9000053,34.195024 3.7989883,34.195024 3.8000107,34.195024 5.6989937,34.195024 7.598999,34.195024 9.4990044,34.195024 11.400005,34.195024 13.298994,34.195024 13.298994,47.495006 11.400005,47.495006 9.4990044,47.495006 7.598999,47.495006 5.6989937,47.495006 3.8000107,47.495006 3.7989883,47.495006 1.9000053,47.495006 0,47.495006z M32.296009,32.295016L32.296009,37.995004 34.195984,37.995004 34.197008,37.995004 36.094997,37.995004 37.995004,37.995004 37.995004,32.295016 36.094997,32.295016 34.197008,32.295016 34.195984,32.295016z M3.7989883,28.495997L5.6989937,28.495997 5.6989937,32.295016 3.7989883,32.295016z M32.296009,26.596022L34.197008,26.596022 34.197008,30.396004 36.094997,30.396004 37.995004,30.396004 39.893986,30.396004 39.89501,30.396004 41.795009,30.396004 41.795009,32.295016 39.89501,32.295016 39.89501,36.094005 41.795009,36.094005 41.795009,43.693006 39.893986,43.693006 39.893986,39.896003 37.995004,39.896003 37.995004,45.594005 36.094997,45.594005 36.094997,47.495006 34.195984,47.495006 34.195984,45.594005 32.296009,45.594005 30.396996,45.594005 28.495996,45.594005 28.495996,43.693006 30.396996,43.693006 32.296009,43.693006 34.195984,43.693006 34.195984,43.692014 36.094997,43.692014 36.094997,41.795016 34.197008,41.795016 34.195984,41.795016 32.296009,41.795016 32.296009,39.896003 30.396996,39.896003 28.495996,39.896003 28.495996,43.693006 26.595991,43.693006 26.595991,41.795016 24.697008,41.795016 24.697008,43.693006 26.595991,43.693006 26.595991,45.594005 24.697008,45.594005 24.695984,45.594005 22.797995,45.594005 22.797995,41.795016 20.896996,41.795016 20.896996,39.896003 22.797995,39.896003 22.797995,41.794024 24.695984,41.794024 24.695984,39.896003 22.797995,39.896003 22.797995,37.995004 24.695984,37.995004 24.695984,36.094998 26.595991,36.094998 26.595991,37.995997 28.495996,37.995997 28.495996,32.295016 30.396996,32.295016 30.396996,28.495997 32.296009,28.495997z M41.796009,26.594998L43.694999,26.594998 43.694999,26.596022 45.594004,26.596022 45.594004,26.594998 47.495003,26.594998 47.495003,30.396004 45.594004,30.396004 45.594004,32.295016 43.694999,32.295016 43.694999,34.196015 45.594004,34.196015 45.594004,34.195024 47.495003,34.195024 47.495003,37.995004 45.594004,37.995004 45.594004,39.896003 43.694999,39.896003 43.693999,39.896003 41.796009,39.896003 41.796009,37.995004 43.693999,37.995004 43.693999,36.094005 41.796009,36.094005 41.796009,30.397027 43.693999,30.397027 43.693999,28.495997 41.796009,28.495997z M24.697008,24.698002L24.697008,26.594998 26.595991,26.594998 26.595991,24.698002z M37.995004,22.797003L39.89501,22.797003 39.89501,24.698002 41.795009,24.698002 41.795009,28.496998 39.893986,28.496998 39.893986,28.495997 37.995004,28.495997 37.995004,26.594998 39.893986,26.594998 39.893986,24.698002 37.995004,24.698002z M20.896996,22.797003L22.797995,22.797003 22.797995,24.698002 20.896996,24.698002z M39.893986,18.998014L41.795009,18.998014 41.795009,20.897003 39.893986,20.897003z M1.9000053,18.998014L3.8000107,18.998014 3.8000107,22.797003 5.6989937,22.797003 5.6989937,24.698002 7.598999,24.698002 7.598999,26.594998 5.6989937,26.594998 5.6989937,26.595999 3.7989883,26.595999 3.7989883,26.594998 1.9000053,26.594998 1.9000053,24.698002 0,24.698002 0,20.89501 1.9000053,20.89501z M18.99699,17.096022L20.896996,17.096022 20.896996,18.997014 18.99699,18.997014z M0,17.096022L1.9000053,17.096022 1.9000053,18.997014 0,18.997014z M41.796009,15.198002L43.694999,15.198002 45.594004,15.198012 47.495003,15.198002 47.495003,17.097015 45.594004,17.097015 45.594004,18.998014 47.495003,18.998014 47.495003,24.698002 45.594004,24.698002 43.694004,24.698012 41.796009,24.698002 41.796009,22.797003 43.694004,22.797003 43.694004,17.097015 41.796009,17.097015z M3.7989883,15.198002L5.6989937,15.198002 7.598999,15.198002 9.4990044,15.198002 9.4990044,17.097015 7.598999,17.097015 7.598999,18.998014 5.6989937,18.998014 5.6989937,17.097015 3.7989883,17.097015z M30.396996,11.399013L32.296009,11.399013 32.296009,15.198002 34.195984,15.198002 34.197008,15.198002 36.094997,15.198002 37.995004,15.198002 37.995004,18.998014 36.094997,18.998014 36.094997,17.097015 34.197008,17.097015 34.195984,17.097015 32.296009,17.097015 32.296009,17.096014 30.396996,17.096014z M26.595991,5.6980019L28.495996,5.6980019 30.396996,5.6980019 30.396996,9.498014 28.495996,9.498014 26.595991,9.498014z M41.796009,3.8000116L43.694999,3.8000116 43.694999,9.497014 41.796009,9.497014z M37.995004,3.8000116L39.893986,3.8000116 39.89501,3.8000116 41.795009,3.8000116 41.795009,9.497014 39.89501,9.497014 39.893986,9.497014 37.995004,9.497014z M3.7989883,3.8000116L5.6989937,3.8000116 7.598999,3.8000116 9.4990044,3.8000116 9.4990044,9.497014 7.598999,9.497014 5.6989937,9.497014 3.7989883,9.497014z M1.9000053,1.8990126L1.9000053,11.39802 3.7989883,11.39802 3.8000107,11.39802 5.6989937,11.39802 7.598999,11.39802 9.4990044,11.39802 11.400005,11.39802 11.400005,1.8990126 9.4990044,1.8990126 7.598999,1.8990126 5.6989937,1.8990126 3.8000107,1.8990126 3.7989883,1.8990126z M30.396996,0.0010232925L32.296009,0.0010232925 32.296009,5.6980019 30.396996,5.6980019z M15.198,0.0010232925L17.098007,0.0010232925 17.098007,3.8000116 18.99699,3.8000116 18.99699,3.7990189 20.896996,3.7990189 22.797995,3.7990189 22.797995,5.6980019 20.896996,5.6980019 20.896996,7.5990005 18.997982,7.5990005 18.997982,9.498014 20.896996,9.498014 20.896996,7.5990005 22.797995,7.5990005 24.697008,7.5990005 24.697008,17.096014 22.797995,17.096014 22.797995,11.399013 20.896996,11.399013 20.896996,15.198002 18.99699,15.198002 18.99699,11.399013 17.098007,11.399013 17.098007,17.097015 15.198,17.097015 15.198,18.998014 17.098007,18.998014 17.098007,22.797003 18.997982,22.797003 18.997982,24.698002 20.896996,24.698002 20.896996,26.594998 18.99699,26.594998 18.99699,24.698002 17.098007,24.698002 15.198,24.698002 15.198,20.896004 13.298994,20.896004 13.298994,20.897003 11.400005,20.897003 11.400005,22.797003 13.298994,22.797003 13.298994,24.698002 11.400005,24.698002 11.400005,26.594998 13.298994,26.594998 13.298994,28.495997 15.198,28.495997 15.198,30.396004 17.098007,30.396004 17.098007,28.495997 15.198,28.495997 15.198,26.594998 17.098007,26.594998 17.098007,26.596022 18.997982,26.596022 18.997982,28.495997 20.896996,28.495997 22.797995,28.495997 22.797995,30.396004 20.896996,30.396004 20.896996,32.295016 18.997982,32.295016 18.99699,32.295016 17.098007,32.295016 17.098007,34.195024 18.99699,34.195024 18.997982,34.195024 20.896996,34.195024 20.896996,32.295016 22.797995,32.295016 22.797995,30.396004 24.695984,30.396004 24.695984,26.594998 22.797995,26.594998 22.797995,24.698002 24.695984,24.698002 24.695984,22.797003 22.797995,22.797003 22.797995,20.897003 20.896996,20.897003 20.896996,18.998014 22.797995,18.998014 22.797995,20.896004 24.695984,20.896004 24.695984,17.097015 26.595991,17.097015 26.595991,11.399013 28.495996,11.399013 28.495996,18.998014 30.396996,18.998014 30.396996,20.896004 32.296009,20.896004 32.296009,20.89501 34.195984,20.89501 34.195984,18.998014 36.094997,18.998014 36.094997,20.897003 34.197008,20.897003 34.197008,22.797003 36.094997,22.797003 36.094997,24.698002 34.197008,24.698002 34.195984,24.698002 32.296009,24.698002 32.296009,22.797003 30.396996,22.797003 30.396996,20.897003 28.495996,20.897003 28.495996,24.698002 30.396996,24.698002 32.296009,24.698002 32.296009,26.594998 30.396996,26.594998 28.495996,26.594998 28.495996,32.295016 26.595991,32.295016 26.595991,30.396004 24.697008,30.396004 24.697008,34.196015 22.797995,34.196015 22.797995,37.995004 20.896996,37.995004 18.997982,37.995004 18.99699,37.995004 17.098007,37.995004 17.098007,34.196015 15.198,34.196015 15.198,32.295016 13.298994,32.295016 13.297995,32.295016 11.400005,32.295016 9.4990044,32.295016 7.598999,32.295016 7.598999,30.396004 9.4990044,30.396004 9.4990044,28.495997 11.400005,28.495997 11.400005,30.396004 13.297995,30.396004 13.297995,28.495997 11.400005,28.495997 11.400005,26.595999 9.4990044,26.595999 9.4990044,28.495997 7.598999,28.495997 7.598999,26.594998 9.4990044,26.594998 9.4990044,24.698002 7.598999,24.698002 7.598999,18.998014 9.4990044,18.998014 9.4990044,17.097015 11.400005,17.097015 11.400005,18.998014 13.297995,18.998014 13.297995,17.097015 11.400005,17.097015 11.400005,15.198002 13.298994,15.198002 13.298994,17.096022 15.198,17.096022 15.198,9.498014 17.098007,9.498014 17.098007,5.6980019 15.198,5.6980019z M41.796009,0L43.693999,0 43.694999,0 45.594004,0 47.495003,0 47.495003,13.297003 45.594004,13.297003 43.694999,13.297003 43.693999,13.297003 41.796009,13.297003 41.796009,11.39802 43.693999,11.39802 43.694999,11.39802 45.594004,11.39802 45.594004,1.8990126 43.694999,1.8990126 43.693999,1.8990126 41.796009,1.8990126z M34.195984,0L36.094997,0 37.995004,0 39.893986,0 39.89501,0 41.795009,0 41.795009,1.8990126 39.89501,1.8990126 39.893986,1.8990126 37.995004,1.8990126 36.094997,1.8990126 36.094997,11.39802 37.995004,11.39802 39.893986,11.39802 39.89501,11.39802 41.795009,11.39802 41.795009,13.297003 39.89501,13.297003 39.893986,13.297003 37.995004,13.297003 36.094997,13.297003 34.195984,13.297003z M24.695984,0L26.595991,0 28.495996,0 28.495996,1.8990126 26.595991,1.8990126 26.595991,3.8000116 24.695984,3.8000116z M0,0L1.9000053,0 3.7989883,0 3.8000107,0 5.6989937,0 7.598999,0 9.4990044,0 11.400005,0 13.298994,0 13.298994,13.297003 11.400005,13.297003 9.4990044,13.297003 7.598999,13.297003 5.6989937,13.297003 3.8000107,13.297003 3.7989883,13.297003 1.9000053,13.297003 0,13.297002z" />
      </g>
    </g>
    <g transform="translate(1342,70)">
      <g transform="translate(11,11)">
        <path id="Settings - 11" height="26" width="26" transform="rotate(0,13,13) translate(0,0) scale(0.0338983050847458,0.0338983050847458)  " fill="#FFF8F8" d="M383.518,230.427C299.063,230.427 230.355,299.099 230.355,383.554 230.355,468.009 299.063,536.644 383.518,536.644 467.937,536.644 536.645,468.009 536.645,383.554 536.645,299.099 467.937,230.427 383.518,230.427z M340.229,0L426.771,0C436.838,0,445.035,8.19732,445.035,18.2643L445.035,115.303C475.165,122.17,503.532,133.928,529.634,150.43L598.306,81.6869C601.721,78.3074 606.359,76.3653 611.213,76.3653 616.031,76.3653 620.704,78.3074 624.12,81.6869L685.278,142.916C692.397,150.035,692.397,161.648,685.278,168.767L616.677,237.402C633.108,263.54,644.866,291.907,651.733,322.001L748.736,322.001C758.803,322.001,767,330.198,767,340.265L767,426.806C767,436.873,758.803,445.07,748.736,445.07L651.769,445.07C644.901,475.235,633.108,503.531,616.677,529.669L685.278,598.305C688.694,601.72 690.635,606.358 690.635,611.212 690.635,616.102 688.694,620.705 685.278,624.12L624.085,685.313C620.525,688.872 615.851,690.67 611.177,690.67 606.503,690.67 601.865,688.872 598.269,685.313L529.67,616.678C503.567,633.109,475.2,644.937,445.035,651.804L445.035,748.771C445.035,758.838,436.838,767,426.771,767L340.229,767C330.162,767,321.965,758.838,321.965,748.771L321.965,651.804C291.8,644.937,263.433,633.109,237.366,616.678L168.731,685.313C165.315,688.693 160.677,690.67 155.823,690.67 151.005,690.67 146.296,688.693 142.916,685.313L81.7221,624.12C74.6033,617.036,74.6033,605.424,81.7221,598.305L150.323,529.669C133.892,503.603,122.099,475.235,115.267,445.07L18.2643,445.07C8.19734,445.07,0,436.873,0,426.806L0,340.265C0,330.198,8.19734,322.001,18.2643,322.001L115.267,322.001C122.135,291.907,133.892,263.54,150.323,237.402L81.7221,168.767C78.3064,165.351 76.3655,160.713 76.3655,155.859 76.3655,150.97 78.3064,146.332 81.7221,142.916L142.916,81.7582C146.476,78.1988 151.149,76.4016 155.823,76.4016 160.497,76.4016 165.171,78.1988 168.731,81.7582L237.366,150.43C263.469,133.928,291.837,122.17,321.965,115.303L321.965,18.2643C321.965,8.19732,330.162,0,340.229,0z" />
      </g>
    </g>
    <g transform="translate(1410,70)">
      <g transform="translate(11,13.0634537121736)">
        <path id="Table-of-Contents" height="26" width="26" transform="rotate(0,13,10.9365462878264) translate(0,0) scale(0.687703349794034,0.687703349794034)  " fill="#FFF8F8" d="M0,27.006001L37.806999,27.006001 37.806999,31.806 0,31.806z M0,18.003L37.806999,18.003 37.806999,22.806 0,22.806z M0,8.9999999L37.806999,8.9999999 37.806999,13.803 0,13.803z M0,0L37.806999,0 37.806999,4.8030009 0,4.8030009z" />
      </g>
    </g>
    <g transform="translate(1478,70)">
      <g transform="translate(13.546142997086,11)">
        <path id="Voice-Search" height="26" width="26" transform="rotate(0,10.453857002914,13) translate(0,0) scale(0.0303112261557852,0.0303112261557852)  " fill="#FFF8F8" d="M0,437.649L74.7915,437.649C84.8172,550.237 201.917,639.183 344.884,639.183 487.851,639.183 604.951,550.237 614.977,437.649L689.768,437.649C689.768,578.546,558.432,694.512,388.597,711.723L388.597,788.766 505.496,788.766 505.496,857.768 183.469,857.768 183.469,788.766 301.171,788.766 301.171,711.723C131.536,694.512,-6E-06,578.546,0,437.649z M344.884,0C432.91,3E-06,504.292,57.2605,504.292,127.868L504.292,409.823C504.292,480.431 432.91,537.691 344.884,537.691 256.858,537.691 185.476,480.431 185.476,409.823L185.476,127.868C185.476,57.2605,256.858,3E-06,344.884,0z" />
      </g>
    </g>
    <g transform="translate(1546,70)">
      <g transform="translate(11,11)">
        <path id="Shape18" height="26" width="26" transform="rotate(0,13,13) translate(0,0) scale(0.40625,0.40625)  " fill="#FFF8F8" d="M64,32C64,49.673112 49.673112,64 32,64 14.326888,64 0,49.673112 0,32 0,14.326888 14.326888,0 32,0 49.673112,0 64,14.326888 64,32z" />
      </g>
    </g>
    <g transform="translate(1614,70)">
      <g transform="translate(11,12.7157360406091)">
        <path id="Shape10" height="26" width="26" transform="rotate(0,13,11.2842639593909) translate(0,0) scale(0.032994923857868,0.032994923857868)  " fill="#FFF8F8" d="M197,0L591.001,0 788,342 591.001,684 197,684 0,342z" />
      </g>
    </g>
    <g transform="translate(1682,70)">
      <g transform="translate(11,15.46875)">
        <path id="Rectangle" height="26" width="26" transform="rotate(0,13,8.53125) translate(0,0) scale(0.40625,0.40625)  " fill="#FFF8F8" d="M0,0L64,0 64,42 0,42z" />
      </g>
    </g>
    <g transform="translate(1750,70)">
      <g transform="translate(15.4851009654042,11)">
        <path id="Button" height="26" width="26" transform="rotate(0,8.5148990345958,13) translate(0,0) scale(0.410554439862254,0.410554439862254)  " fill="#FFF8F8" d="M18.134924,10.069491C18.182504,10.070954 18.226784,10.075679 18.267159,10.083492 18.912856,10.208492 21.203145,10.125092 21.287845,12.937584 21.368644,15.750177 21.420642,32.401232 21.420642,32.401232 21.420642,32.401232 21.128945,34.109426 23.087436,33.067829 23.087436,33.067829 22.892137,24.763252 23.808631,24.179853 24.725327,23.596556 26.699218,23.817855 27.199216,24.401254 27.699212,24.984552 28.03271,24.971453 28.03271,33.346531 28.03271,33.346531 29.329604,34.548225 29.933602,33.125031 30.475297,31.846535 29.712403,27.113346 30.865897,26.569048 31.808593,26.123848 34.532681,26.123848 34.724078,28.291742 34.94918,30.823036 34.224082,36.125023 35.642074,35.791723 35.642074,35.791723 36.64207,36.08342 36.724071,34.541725 36.808566,33.000132 37.170566,30.152338 38.420558,29.902338 39.670554,29.652338 41.226447,30.208437 41.309947,32.291733 41.393249,34.375029 42.30334,46.694096 38.865859,55.403671 35.753875,63.291653 36.420569,62.62495 33.475282,63.12495 30.764396,63.584751 26.699218,63.123753 26.699218,63.123753 26.699218,63.123753 17.724162,64.458344 15.642171,57.624966 13.557382,50.791683 10.808695,40.958406 7.3086622,38.958412 3.8086796,36.958418 4.2461775,36.375023 4.2879275,35.354223 4.329677,34.333426 7.6004109,31.250135 12.975385,35.750124 12.975385,35.750124 16.100369,39.791712 16.100369,42.000107 16.100369,42.000107 15.694171,14.302181 15.808671,12.790584 15.964952,10.759308 17.421215,10.047531 18.134924,10.069491z M16.210455,0.0030574799C21.053691,0.097863197 25.793481,2.3955178 28.834798,6.6344271 32.838635,12.21174 32.700637,19.489713 29.050796,24.853518 28.871198,24.18093 28.625102,23.840536 28.293006,23.463443 28.222709,23.382145 28.14071,23.315745 28.060111,23.246147 30.897265,18.531329 30.847667,12.378437 27.44152,7.6330698 22.879092,1.2750912 13.991233,-0.18582344 7.6346729,4.3779364 1.2753935,8.941597 -0.18307352,17.829642 4.3793546,24.186131 6.8480656,27.624269 10.581187,29.616436 14.495125,30.013029 14.501724,30.597519 14.509524,31.174908 14.517425,31.745998 10.062895,31.351505 5.7987621,29.104744 2.9863064,25.187413 -2.1386123,18.048238 -0.5033884,8.1096115 6.6346891,2.986001 9.5344396,0.90457535 12.896662,-0.06180954 16.210455,0.0030574799z" />
      </g>
    </g>
    <g transform="translate(1818,70)">
      <g transform="translate(11,15.2742729506451)">
        <path id="Filtering" height="26" width="26" transform="rotate(0,13,8.72572704935494) translate(0,0) scale(0.0911307515506813,0.0911307515506813)  " fill="#FFF8F8" d="M32.1727008278831,0.00203216580848675L87.0864543374046,0.326190351202968 198.268262809084,0.973843483880046 253.4210032876,1.35136481995869C281.993177359866,1.5134433197527,293.53281969385,11.2288934874086,279.049512809084,22.9406702208071L249.362028067873,47.06655904527C234.958387320803,58.7249681639223,211.401166861819,77.8857347654848,196.995572989748,89.5975114988833L180.202024405764,103.19888326402 180.202024405764,181.676216332868C180.202024405764,187.127556054547,173.677335685061,191.499061791852,165.639051383303,191.499061791852L119.637945121096,191.499061791852C111.599653189944,191.499061791852,105.073034232424,187.127556054547,105.073034232424,181.676216332868L105.073034232424,104.710289208844 86.289815848635,88.94985982652C72.2048320229515,77.0760042356997,49.1236438210472,57.5917398619204,35.0367183144554,45.7172281431704L5.98850054101786,21.2678434538393C-8.17808919592062,9.39332887406636,3.68018884019693,-0.16004400078964,32.1727008278831,0.00203216580848675z" />
      </g>
    </g>
    <g transform="translate(1886,70)">
      <g transform="translate(11,15.2742508349134)">
        <path id="Command-Undo" height="26" width="26" transform="rotate(0,13,8.72574916508662) translate(0,0) scale(0.0911305468444649,0.0911305468444649)  " fill="#FFF8F8" d="M161.6788,0C194.72511,1.2265518E-06 225.75655,15.601127 249.08913,43.892995 272.43511,72.129502 285.30498,109.75885 285.30498,149.76606 285.30498,164.07281 283.562,178.11065 280.33891,191.49999L239.98166,191.49999C244.7115,178.48763 247.27028,164.39706 247.27028,149.76606 247.27028,122.06998 238.36791,96.045251 222.17241,76.447625 206.03037,56.849996 184.53888,46.104779 161.6788,46.104779 138.8098,46.104779 117.31831,56.849996 101.15846,76.447625 89.180124,90.970536 81.227258,109.05762 77.883844,128.71061L118.88302,184.31895 0,184.31895 9.4953277,35.95535 48.706953,89.083009C54.783022,72.453759 63.302099,57.11889 74.264047,43.892995 97.59662,15.601127 128.6503,1.2265518E-06 161.6788,0z" />
      </g>
    </g>
    <g transform="translate(1954,70)">
      <g transform="translate(11,15.2742049470343)">
        <path id="Command-Redo" height="26" width="26" transform="rotate(0,13,8.72579505296574) translate(0,0) scale(0.0911305468444649,0.0911305468444649)  " fill="#FFF8F8" d="M123.633688266389,0C156.642156894319,-4.85917553305626E-07 187.724783237092,11.3978919420624 211.049810702913,32.0188273821259 222.016500766389,41.714715901413 230.52315359842,52.9238185320282 236.621343906038,65.0318393144989L275.782202060334,26.2015265856171 285.304998691194,134.55655855278 166.432058627717,134.55655855278 207.41167288553,93.9769000444794C204.094824130647,79.5987643633271 196.123678500764,66.4030322466278 184.14018851053,55.8087977800751 167.983709628694,41.4780063066864 146.4774230076,33.6273059282685 123.633688266389,33.6273059282685 100.737066562288,33.6273059282685 79.2843306614086,41.4780063066864 63.1278479648754,55.8087977800751 46.9178107334301,70.0922488603974 38.0369666172192,89.1052874956513 38.0369666172192,109.300722065964 38.0369666172192,129.543497029343 46.9178107334301,148.508615437546 63.1278479648754,162.792062703171 70.5105879856274,169.413598958054 70.5105879856274,180.055185261765 63.1278479648754,186.582040730515 59.3832495762035,189.892511311569 54.5147536350414,191.500986043015 49.6462576938793,191.500986043015 44.7777617527172,191.500986043015 39.9099181247875,189.892511311569 36.2182181430981,186.582040730515 12.8396390033886,165.961099568405 0,138.529260579147 0,109.300722065964 0,80.1189517412568 12.8396390033886,52.6876849565888 36.2182181430981,32.0188273821259 59.5432494236156,11.3978919420624 90.5723250461742,-4.85917553305626E-07 123.633688266389,0z" />
      </g>
    </g>
    <g transform="translate(2022,70)">
      <g transform="translate(14.5369678624828,11)">
        <path id="Clipboard" height="26" width="26" transform="rotate(0,9.46303213751718,13) translate(0,0) scale(0.404109502135706,0.404109502135706)  " fill="#FFF8F8" d="M5.1369983,14.389L5.1369983,59.294998 41.695999,59.294998 41.695999,14.389 35.229999,14.389 35.229999,20.865 11.604,20.865 11.604,14.389z M23.416599,2.7189999C21.47262,2.7190001 19.896,4.2111921 19.896,6.0525045 19.896,7.8918576 21.47262,9.3859997 23.416599,9.3859997 25.360378,9.3859997 26.937,7.8918576 26.937,6.0525045 26.937,4.2111921 25.360378,2.7190001 23.416599,2.7189999z M23.416601,0C26.83604,0,29.627556,2.5418637,29.798685,5.7406974L29.806993,6.0520005 35.229999,6.0520005 35.229999,7.9879994 46.833999,7.9879994 46.833999,64.338997 0,64.338997 0,7.9879994 11.604,7.9879994 11.604,6.0520005 17.026006,6.0520005 17.034313,5.7406974C17.205444,2.5418637,19.996965,0,23.416601,0z" />
      </g>
    </g>
    <g transform="translate(2090,70)">
      <g transform="translate(12.4986566901207,11)">
        <path id="Text-Normal" height="26" width="26" transform="rotate(0,11.5013433098793,13) translate(0,0) scale(0.40625,0.40625)  " fill="#FFF8F8" d="M0,0L56.621998,0 56.621998,14.472 35.715999,14.472 35.715999,64 20.716999,64 20.716999,14.472 0,14.472z" />
      </g>
    </g>
    <g transform="translate(2158,70)">
      <g transform="translate(13.5502344369888,11)">
        <path id="Hand-05" height="26" width="26" transform="rotate(0,10.4497655630112,13) translate(0,0) scale(0.40625,0.40625)  " fill="#FFF8F8" d="M28.55345,0C30.592468,0,32.246002,1.43223,32.246002,3.2005157L32.246002,26.592201 32.738201,26.585C33.303227,26.585001,33.862396,26.610051,34.414669,26.659101L34.461002,26.664249 34.461002,5.4154949C34.461002,3.648632 36.11451,2.2150002 38.1535,2.2150002 40.19249,2.2150002 41.846001,3.648632 41.846001,5.4154949L41.846001,28.952087 42.04982,29.063612C42.963825,29.589207,43.829231,30.189799,44.637631,30.856983L44.737999,30.943929 44.737999,12.615491C44.737999,10.847274 46.170265,9.414999 47.937351,9.414999 49.705631,9.414999 51.138001,10.847274 51.138001,12.615491L51.138001,41.66147C51.138001,41.716686,51.136601,41.771577,51.133839,41.826109L51.130825,41.865704 51.152832,41.980562C51.344811,43.055309 51.445,44.161839 51.445,45.29175 51.445,55.623768 43.070088,64 32.738201,64 30.4781,64 28.311577,63.599186 26.30584,62.864758L25.910954,62.71463 25.910315,62.714424C25.48176,62.573856,24.328207,62.141479,22.783709,61.138031L22.590094,61.010002 22.278429,60.804855C21.283142,60.132442,20.356033,59.366772,19.509642,58.520382L19.443173,58.452309 19.272431,58.286972C16.183462,55.243603,12.657795,50.234674,10.092423,42.092344L0,28.798986C1.2898684E-07,28.798986 1.8099619,25.919697 5.0492317,25.916004 7.4130231,25.913308 10.537929,27.441884 14.276033,32.737991L15.262,33.052937 15.262,7.3842068C15.262,5.6172447 16.914301,4.1850014 18.9534,4.1850014 20.992399,4.1850014 22.646,5.6172447 22.646,7.3842068L22.646,29.538646 23.049538,29.286115C23.495749,29.015457,23.954178,28.762929,24.423805,28.529554L24.861,28.319923 24.861,3.2005157C24.861,1.43223,26.514532,0,28.55345,0z" />
      </g>
    </g>
    <g transform="translate(2226,70)">
      <g transform="translate(11,15.9787623769799)">
        <path id="Arrow Right - 05" height="26" width="26" transform="rotate(0,13,8.02123762302013) translate(0,0) scale(0.0502905213091657,0.0502905213091657)  " fill="#FFF8F8" d="M333.112551546656,0L516.996035433374,159.519172103144 333.112551546656,318.995994002558 284.330691195093,276.662558943965 384.923617220484,189.388755233027 0,189.429816634394 0,129.586707503535 384.923617220484,129.566184432246 284.330691195093,42.3128999779001z" />
      </g>
    </g>
    <g transform="translate(2294,70)">
      <g transform="translate(11,15.9787462785313)">
        <path id="Arrow Left - 05" height="26" width="26" transform="rotate(0,13,8.02125372146874) translate(0,0) scale(0.0502906222411429,0.0502906222411429)  " fill="#FFF8F8" d="M183.858941932674,0L232.640787025448,42.3129078249913 132.023523231503,129.586711535929 516.994974037167,129.56618846464 516.994974037167,189.388759265421 132.072320838924,189.40928233671 232.640787025448,276.642039905069 183.883355995174,318.996013293741 0,159.47683299589z" />
      </g>
    </g>
    <g transform="translate(2362,70)">
      <g transform="translate(11,11.0006090497715)">
        <path id="Bright -02" height="26" width="26" transform="rotate(0,13,12.9993909502285) translate(0,0) scale(1.21876903280536,1.21876903280536)  " fill="#FFF8F8" d="M9.5390005,15.745L11.794,15.745 11.794,21.332 9.5390005,21.332z M15.057215,13.461L19.008,17.411315 17.412785,19.006001 13.462,15.055785z M6.2770729,13.461L7.8720002,15.054614 3.9218674,19.005001 2.3270006,17.411386z M15.746,9.5380001L21.333,9.5380001 21.333,11.793 15.746,11.793z M0,9.5380001L5.5869999,9.5380001 5.5869999,11.793 0,11.793z M10.66696,8.5706525C9.549746,8.5706526 8.6422648,9.4808069 8.6422648,10.59802 8.6422648,11.713913 9.549746,12.624007 10.66696,12.624007 11.784174,12.624007 12.691786,11.713913 12.691786,10.59802 12.691786,9.4808069 11.784174,8.5706526 10.66696,8.5706525z M10.66696,7.4040003C12.431383,7.404 13.861001,8.833771 13.861001,10.59802 13.861001,12.362209 12.431383,13.792 10.66696,13.792 8.9039879,13.792 7.4730005,12.362209 7.4730005,10.59802 7.4730005,8.833771 8.9039879,7.404 10.66696,7.4040003z M3.9215755,2.3270001L7.8720002,6.2771199 6.2783651,7.8720003 2.3280001,3.9219403z M17.411914,2.3250003L19.007001,3.920187 15.056287,7.8710002 13.461,6.2758436z M9.5390005,0L11.794,0 11.794,5.5869999 9.5390005,5.5869999z" />
      </g>
    </g>
    <g transform="translate(2430,70)">
      <g transform="translate(11,11.0265314218949)">
        <path id="Command-Reset" height="26" width="26" transform="rotate(0,13,12.9734685781051) translate(0,0) scale(0.0530612244897959,0.0530612244897959)  " fill="#FFF8F8" d="M244.904052734375,0C380.053283691406,4.12562712881481E-08 490,109.683750480413 490,244.508236259222 490,379.31621965766 380.053283691406,488.99996599555 244.904052734375,488.99996599555 112.450904846191,488.99996599555 4.26841497421262,383.635036796331 0,252.530712455511L62.450626373291,239.599727958441C62.4029960632324,241.246731132269 62.1992416381836,242.853222221136 62.1992416381836,244.508236259222 62.1992416381836,344.997677177191 144.164993286133,426.77080950141 244.904052734375,426.77080950141 345.652954101563,426.77080950141 427.618957519531,344.997677177191 427.618957519531,244.508236259222 427.618957519531,143.994320243597 345.652954101563,62.237655967474 244.904052734375,62.2376521527767 198.139602661133,62.237655967474 155.632064819336,80.085140556097 123.291976928711,109.02804979682L182.790222167969,158.416759818792 10.8468389511108,198.455074638128 19.1043586730957,22.5514434278011 74.7991333007812,68.7766688764095C118.911849975586,26.2635787427425,178.864349365234,4.12562712881481E-08,244.904052734375,0z" />
      </g>
    </g>
    <g transform="translate(2498,70)">
      <g transform="translate(11,11.330346620879)">
        <path id="Crop - 02" height="26" width="26" transform="rotate(0,13,12.669653379121) translate(0,0) scale(0.0334291645887097,0.0334291645887097)  " fill="#FFF8F8" d="M282.837,258.174L282.837,499.861 493.409,499.861 493.409,258.174z M149.125,0L282.837,0 282.837,136.122 627.162,136.122 627.162,499.861 777.764,499.861 777.764,621.913 628.641,621.913 628.641,758 494.965,758 494.965,621.913 149.125,621.913 149.125,258.174 0,258.174 0,136.122 149.125,136.122z" />
      </g>
    </g>
    <g transform="translate(2566,70)">
      <g transform="translate(11,11.3414145657852)">
        <path id="Filter-Add" height="26" width="26" transform="rotate(0,13,12.6585854342148) translate(0,0) scale(0.40048676011317,0.40048676011317)  " fill="#FFF8F8" d="M0.33299977,11.255001L37.041492,11.255001C37.024494,11.5465 36.998592,11.833101 36.998592,12.127501 36.998592,16.835509 39.218594,21.028417 42.66,23.739322L32.947788,35.026046 32.947788,63.215999 21.340874,56.585582 21.340874,34.473741z M1.2878363,4.0470002L39.629997,4.0470002C38.815098,5.2892774,38.190102,6.6619451,37.777203,8.1230001L1.2878363,8.1230001C0.57543737,8.1229997,-1.1920924E-07,7.5472746,1.8521793E-14,6.8362782L1.8521793E-14,5.3361609C-1.1920924E-07,4.622725,0.57543737,4.0469999,1.2878363,4.0470002z M51.657997,2.851L51.658268,8.9899988 45.519997,8.9899988 45.520729,13.211999 51.658455,13.211999 51.658726,19.349998 55.881996,19.350998 55.881699,13.211999 62.019997,13.211999 62.019997,8.9899988 55.881493,8.9899988 55.881195,2.8514885z M53.78915,0C59.934986,0 64.920998,5.0391269 64.920998,11.25555 64.920998,17.470431 59.934986,22.511001 53.78915,22.511001 47.643211,22.511001 42.66,17.470431 42.66,11.25555 42.66,5.0391269 47.643211,0 53.78915,0z" />
      </g>
    </g>
    <g transform="translate(2634,70)">
      <g transform="translate(12.8373557238734,11)">
        <path id="Incident" height="26" width="26" transform="rotate(0,11.1626442761266,13) translate(0,0) scale(0.73479541119417,0.73479541119417)  " fill="#FFF8F8" d="M30.383,9.5469999L30.383,9.6359997 30.198,9.6359997z M20.563,0L30.198,9.6359997 22.417057,9.6359997C21.396342,9.6333103,20.565564,8.8039265,20.563,7.7817736z M2.9636101,0L18.34132,0 18.34132,7.7813263C18.34132,10.033843,20.164132,11.855433,22.416848,11.855433L30.382998,11.855433 30.382998,32.420517C30.382998,34.057205,29.054892,35.383999,27.41948,35.383999L2.9636101,35.383999C1.3281391,35.383999,3.5697749E-07,34.057205,0,32.420517L0,2.9649534C3.5697749E-07,1.3269625,1.3281391,0,2.9636101,0z" />
      </g>
    </g>
    <g transform="translate(2702,70)">
      <g transform="translate(11,13.2867811322212)">
        <path id="Printer" height="26" width="26" transform="rotate(0,13,10.7132188677788) translate(0,0) scale(0.40625,0.40625)  " fill="#FFF8F8" d="M13.338,28.512001L50.661999,28.512001 50.661999,52.741999 13.338,52.741999z M0,6.9750004L9.1771202,6.9750004 9.1771202,13.338428 54.944,13.338428 54.944,6.9750004 64,6.9750004 64,35.609999 54.944,35.609999 54.944,24.107311 9.1771202,24.107311 9.1771202,35.609999 0,35.609999z M13.277,0L50.723,0 50.723,9.4230003 13.277,9.4230003z" />
      </g>
    </g>
    <g transform="translate(2770,70)">
      <g transform="translate(11,11.00000013111)">
        <path id="Link - 01" height="26" width="26" transform="rotate(0,13,12.99999986889) translate(0,0) scale(1.09983072382837,1.09983072382837)  " fill="#FFF8F8" d="M7.7709281,11.040411C8.3477862,11.04786,8.923774,11.156583,9.4698895,11.366144L8.0361993,12.799638C7.1253419,12.707338,6.1818323,12.995037,5.4852486,13.691533L2.6576099,16.51852C1.4276628,17.748915 1.4269924,19.751505 2.6576099,20.981899 3.8880777,22.212494 5.8908739,22.212494 7.1213515,20.981899L9.9489598,18.155113C10.645704,17.458416,10.933422,16.514521,10.841016,15.603024L12.274706,14.169432C12.945349,15.916823,12.583926,17.970215,11.174437,19.380308L8.3467691,22.207294C6.4370384,24.117386 3.3412533,24.117386 1.4321928,22.208395 -0.47739792,20.298304 -0.47739792,17.203318 1.4321928,15.293126L4.259841,12.466339C5.2285414,11.497793,6.5018411,11.024022,7.7709281,11.040411z M14.645898,7.6959996L15.942,8.9930334 8.9308417,16.004999 7.6339998,14.709355z M18.751149,0C20.002433,0 21.253716,0.47753191 22.208506,1.4325956 24.117282,3.3413134 24.117282,6.4363513 22.207806,8.3465986L19.380441,11.173371C17.970859,12.583447,15.917485,12.94414,14.170206,12.273652L15.603688,10.840076C16.515077,10.932475,17.458565,10.64468,18.155056,9.9480915L20.982521,7.1212792C22.212406,5.8909502 22.213005,3.8883042 20.982521,2.6579149 19.752136,1.4274058 17.749461,1.4274058 16.519076,2.6579149L13.691713,5.4847069C12.995721,6.1812258,12.707325,7.1239595,12.799723,8.0354433L11.366141,9.4688301C10.69555,7.721549,11.057546,5.668304,12.466328,4.259388L15.293792,1.4325956C16.24858,0.47753191,17.499865,0,18.751149,0z" />
      </g>
    </g>
    <g transform="translate(2838,70)">
      <g transform="translate(11,11.0005496193828)">
        <path id="Link - 02" height="26" width="26" transform="rotate(0,13,12.9994503806172) translate(0,0) scale(1.09983082314662,1.09983082314662)  " fill="#FFF8F8" d="M14.422,18.656999L15.455,18.6583 15.455,21.962 14.422499,21.962z M16.862943,16.217001L19.2,18.552696 18.470057,19.283001 16.133,16.947506z M18.667999,14.410999L21.971999,14.412399 21.971999,15.444601 18.667999,15.446z M7.7710905,11.040431C8.3479354,11.048066,8.9238465,11.15706,9.4697576,11.367016L8.0360808,12.80052C7.1252055,12.706826,6.1818285,12.995907,5.485786,13.691161L2.6574745,16.517772C1.42766,17.748192 1.427,19.750658 2.6574745,20.982376 3.8880792,22.212694 5.8914008,22.211393 7.1213455,20.982376L9.9496168,18.154465C10.645559,17.45911,10.933476,16.515274,10.840871,15.603734L12.274558,14.170229C12.945198,15.917513,12.584476,17.970876,11.174291,19.379583L8.3466296,22.207495C6.4370437,24.116167 3.3417764,24.116167 1.4328804,22.207495 -0.47751522,20.297422 -0.47751522,17.202627 1.4322109,15.293954L4.2598519,12.466042C5.2284536,11.497419,6.5020318,11.023635,7.7710905,11.040431z M1.5909996,8.0969999L4.89432,8.0969999 4.895,9.1309994 1.5909996,9.1309994z M4.9997749,4.3539999L7.336,6.6896274 6.606235,7.4199999 4.27,5.0843723z M8.1086693,1.5799998L9.1413307,1.5799998 9.1420003,4.885 8.1079998,4.885z M18.751231,3.3127037E-08C20.002584,0.00014482793 21.254039,0.47768844 22.209123,1.4327759 24.117191,3.3404398 24.117191,6.4369309 22.207723,8.3458851L19.38037,11.174056C17.970893,12.58291,15.917428,12.943825,14.170156,12.274399L15.603732,10.840743C16.515217,10.931947,17.459202,10.644035,18.15519,9.9488075L20.983243,7.1206177C22.212323,5.8900392 22.213622,3.8874612 20.983243,2.6568134 19.752764,1.4264254 17.749597,1.4275254 16.519717,2.6568134L13.691665,5.4850538C12.995676,6.1803906,12.707281,7.1244576,12.800279,8.0346525L11.366203,9.4695795C10.695514,7.7220805,11.057508,5.6686509,12.466484,4.259846L15.293938,1.4316156C16.248622,0.47710842,17.499876,-0.00014517847,18.751231,3.3127037E-08z" />
      </g>
    </g>
    <g transform="translate(2906,70)">
      <g transform="translate(11,14.5748299876014)">
        <path id="Link - 05" height="26" width="26" transform="rotate(0,13,9.42517001239858) translate(0,0) scale(0.0245447135739546,0.0245447135739546)  " fill="#FFF8F8" d="M539.726,287.108L470.457,357.296C450.297,377.661,450.297,410.723,470.457,431.159L519.567,480.91 588.837,410.723C608.997,390.368,608.997,357.296,588.837,336.87z M389.277,156.405C376.074,156.405,362.879,161.495,352.823,171.675L97.5421,430.234C77.3831,450.599,77.3831,483.666,97.5421,504.087L260.661,669.286C280.822,689.657,313.446,689.657,333.605,669.286L461.221,540.035 412.112,490.274C359.824,437.313,359.824,351.141,412.112,298.237L481.382,228.054 425.767,171.675C415.687,161.495,402.479,156.405,389.277,156.405z M762.16,83.4647C748.964,83.4647,735.768,88.5574,725.689,98.7427L598.073,227.984 647.232,277.746C699.47,330.715,699.47,416.883,647.182,469.783L577.862,539.97 633.527,596.344C653.687,616.704,686.36,616.704,706.471,596.344L961.752,337.785C981.911,317.425,981.911,284.358,961.752,263.932L798.633,98.7427C788.552,88.5574,775.356,83.4647,762.16,83.4647z M762.21,0C796.547,7E-06,830.883,13.226,857.027,39.6781L1020.1,204.808C1072.38,257.778,1072.33,343.94,1020.1,396.84L764.817,655.403C712.529,708.312,627.468,708.312,575.182,655.403L519.567,599.094 391.902,728.325C339.664,781.225,254.554,781.225,202.267,728.325L39.1972,563.216C-13.0907,510.241,-13.0407,424.079,39.1972,371.179L294.477,112.616C346.765,59.7168,431.826,59.7168,484.112,112.616L539.776,168.925 667.392,39.6781C693.536,13.226,727.873,7E-06,762.21,0z" />
      </g>
    </g>
  </g>
</svg>

